<?xml version="1.0" encoding="UTF-8" standalone="no"?>
<svg width="256px" height="256px" viewBox="0 0 256 256" version="1.1" xmlns="http://www.w3.org/2000/svg" xmlns:xlink="http://www.w3.org/1999/xlink" xmlns:sketch="http://www.bohemiancoding.com/sketch/ns">
    <!-- Generator: Sketch 3.5.2 (25235) - http://www.bohemiancoding.com/sketch -->
    <title>frameworks/logo_django-alt</title>
    <desc>Created with Sketch.</desc>
    <defs></defs>
    <g id="Page-1" stroke="none" stroke-width="1" fill="none" fill-rule="evenodd" sketch:type="MSPage">
        <g id="frameworks/logo_django-alt" sketch:type="MSArtboardGroup">
            <g id="django" sketch:type="MSLayerGroup" transform="translate(58.000000, 58.000000)">
                <rect id="Rectangle-2" fill="#0C4B33" sketch:type="MSShapeGroup" x="0" y="0" width="140" height="140" rx="17.5"></rect>
                <path d="M66.2716902,52.2423715 L66.2716902,28.4375 L78.3268397,28.4375 L78.3268397,97.1470155 L57.0704129,97.1470155 C49.7224756,97.1470155 43.8425737,95.0321411 39.430531,90.8023287 C35.0184883,86.5725163 32.8125,80.8016961 32.8125,73.4896949 C32.8125,69.1615148 33.8375875,65.2268646 35.8877932,61.6856263 C37.937999,58.1443881 40.7590397,55.3655414 44.3510002,53.3490029 C47.9429606,51.3324645 51.8218917,50.3242104 55.9879097,50.3242104 C59.2026323,50.3242104 62.6305249,50.963591 66.2716902,52.2423715 L66.2716902,52.2423715 Z M59.924285,87.9004952 L66.2716902,87.9004952 L66.2716902,61.2921574 C63.7786401,60.0133769 61.1872189,59.3739963 58.497349,59.3739963 C54.4625441,59.3739963 51.239669,60.6363632 48.8286271,63.1611349 C46.4175851,65.6859066 45.2120823,68.9975705 45.2120823,73.0962259 C45.2120823,82.9657881 50.1161008,87.9004952 59.924285,87.9004952 L59.924285,87.9004952 Z M96.8770084,29.9621922 C98.6811894,29.9621922 100.255724,30.6343616 101.600659,31.9787206 C102.945594,33.3230795 103.618051,34.9297283 103.618051,36.7987152 C103.618051,38.7004913 102.953794,40.3235345 101.625261,41.6678935 C100.296728,43.0122524 98.7139927,43.6844218 96.8770084,43.6844218 C95.040024,43.6844218 93.4408875,42.9876609 92.0795509,41.594118 C90.7182143,40.2005752 90.0375562,38.6021236 90.0375562,36.7987152 C90.0375562,34.8969391 90.726415,33.2820931 92.1041533,31.9541287 C93.4818915,30.6261644 95.0728273,29.9621922 96.8770084,29.9621922 L96.8770084,29.9621922 Z M102.929185,51.2095155 L102.929185,100.983338 C102.929185,106.09846 101.764686,110.303617 99.4356523,113.598936 C97.1066186,116.894255 93.6951274,119.132087 89.2010765,120.3125 L83.5917416,110.033124 C88.4138255,108.8855 90.8248313,105.295132 90.8248313,99.2619111 L90.8248313,51.2095155 L102.929185,51.2095155 Z" id="dj" fill="#FFFFFF" sketch:type="MSShapeGroup"></path>
            </g>
        </g>
    </g>
</svg>